<?xml version="1.0" standalone="no"?>
<!DOCTYPE svg PUBLIC "-//W3C//DTD SVG 20010904//EN"
 "http://www.w3.org/TR/2001/REC-SVG-20010904/DTD/svg10.dtd">
<svg version="1.0" xmlns="http://www.w3.org/2000/svg"
 width="720.000000pt" height="720.000000pt" viewBox="0 0 720.000000 720.000000"
 preserveAspectRatio="xMidYMid meet">
<metadata>
Created by potrace 1.14, written by Peter Selinger 2001-2017
</metadata>
<g transform="translate(0.000000,720.000000) scale(0.100000,-0.100000)"
fill="#000000" stroke="none">
<path d="M4648 7195 c-2 -2 -26 -5 -53 -8 -28 -3 -57 -8 -65 -11 -8 -3 -26 -7
-40 -10 -65 -12 -259 -89 -295 -118 -5 -5 -39 -27 -75 -50 -84 -54 -233 -204
-288 -289 -49 -75 -24 -69 -212 -54 -143 11 -472 5 -550 -10 -12 -2 -48 -7
-81 -10 -33 -4 -70 -9 -82 -11 -12 -3 -33 -7 -47 -8 -57 -7 -116 -19 -125 -25
-5 -4 -17 -7 -25 -6 -8 1 -35 -4 -60 -11 -25 -7 -56 -15 -70 -18 -33 -6 -247
-71 -285 -87 -16 -7 -33 -13 -37 -14 -5 -2 -10 -4 -13 -5 -3 -1 -8 -3 -12 -5
-5 -1 -17 -5 -28 -10 -11 -4 -47 -19 -80 -32 -144 -59 -474 -232 -483 -255 -2
-4 -8 -8 -13 -8 -17 0 -318 -213 -339 -240 -3 -4 -41 -38 -85 -76 -86 -74
-251 -239 -300 -300 -16 -20 -36 -43 -43 -50 -7 -8 -42 -51 -77 -96 -36 -46
-69 -88 -73 -94 -5 -5 -15 -20 -21 -33 -7 -12 -20 -31 -29 -40 -9 -10 -30 -42
-47 -71 -16 -28 -36 -58 -42 -65 -7 -8 -13 -16 -13 -18 0 -3 -19 -38 -43 -79
-58 -98 -157 -303 -197 -408 -18 -47 -37 -93 -42 -104 -5 -10 -12 -30 -14 -44
-3 -15 -10 -32 -16 -39 -6 -7 -8 -13 -5 -13 3 0 -3 -24 -13 -53 -11 -30 -21
-65 -24 -78 -3 -13 -14 -58 -25 -99 -11 -41 -22 -88 -25 -105 -12 -63 -17 -91
-26 -130 -5 -22 -12 -67 -15 -100 -4 -33 -9 -62 -10 -65 -18 -31 -27 -567 -12
-705 5 -38 10 -97 13 -129 2 -32 6 -62 9 -66 2 -3 7 -29 11 -56 3 -27 8 -52
10 -56 3 -4 7 -27 10 -50 3 -34 34 -159 77 -313 6 -19 39 -120 44 -135 4 -8 7
-17 8 -20 15 -42 66 -172 86 -215 12 -27 23 -52 23 -55 2 -8 94 -188 129 -250
52 -96 152 -248 205 -315 4 -5 18 -26 32 -45 13 -19 37 -51 52 -70 16 -19 32
-40 37 -45 101 -130 339 -364 506 -496 105 -83 339 -240 440 -294 39 -21 76
-42 83 -48 6 -5 12 -6 12 -2 0 5 8 2 18 -6 9 -8 42 -26 72 -39 30 -14 57 -28
58 -32 2 -5 9 -8 15 -8 7 0 46 -14 87 -31 41 -18 89 -38 105 -45 79 -33 326
-105 451 -132 151 -33 204 -42 324 -57 121 -16 154 -17 380 -19 256 -1 385 7
535 34 28 5 68 12 90 15 22 3 67 12 100 20 33 7 85 19 115 26 30 6 60 14 65
18 6 3 16 6 23 7 17 3 182 53 207 63 11 5 40 17 65 26 25 10 59 24 77 31 17 8
34 14 38 14 10 0 304 146 367 182 99 57 191 116 263 168 99 71 117 84 129 95
6 6 52 44 101 85 98 81 306 286 370 364 22 27 48 58 58 70 27 31 51 62 113
146 30 41 58 80 62 85 61 81 274 463 287 515 2 7 19 45 48 113 15 31 26 58 26
60 0 2 0 3 41 121 86 251 151 566 164 808 2 36 6 70 8 75 11 20 -3 467 -17
553 -2 14 -6 50 -10 80 -5 47 -25 161 -41 235 -2 11 -6 29 -8 40 -2 11 -9 40
-15 65 -7 25 -13 52 -15 61 -10 39 -29 106 -36 124 -4 11 -20 58 -35 105 -15
47 -33 99 -40 115 -7 17 -27 66 -46 110 -62 151 -219 442 -286 531 -13 17 -23
36 -23 42 0 6 -6 15 -13 19 -6 4 -26 28 -42 53 -17 25 -38 54 -47 64 -10 11
-18 22 -18 26 0 3 219 224 486 490 267 267 504 505 528 530 48 51 66 93 66
157 0 80 -20 106 -281 355 -86 82 -129 119 -129 112 0 -4 -7 -1 -15 6 -18 15
-133 22 -141 9 -3 -5 -14 -9 -25 -9 -10 0 -19 -4 -19 -10 0 -5 -4 -10 -10 -10
-5 0 -157 -146 -336 -325 -180 -179 -328 -324 -330 -323 -1 2 -5 15 -7 28 -3
14 -16 54 -30 90 -136 361 -443 624 -823 705 -66 15 -326 30 -336 20z m-1037
-1333 c49 -2 50 -3 65 -76 15 -78 91 -244 153 -335 98 -143 243 -276 386 -353
64 -35 81 -42 189 -82 37 -13 70 -26 72 -28 2 -2 -311 -318 -695 -702 -384
-384 -708 -714 -719 -735 -25 -44 -25 -138 0 -186 9 -16 97 -109 195 -206 179
-177 204 -195 280 -203 15 -1 50 6 78 16 44 16 145 113 952 920 497 497 906
904 911 905 4 2 33 -37 66 -87 129 -197 231 -419 304 -660 21 -70 70 -285 70
-310 0 -8 3 -25 6 -37 21 -90 30 -526 13 -653 -10 -78 -23 -159 -30 -195 -2
-11 -8 -38 -13 -60 -4 -22 -9 -44 -9 -50 -3 -21 -27 -104 -58 -195 -17 -52
-32 -97 -32 -100 -1 -3 -6 -16 -12 -30 -6 -14 -16 -42 -24 -62 -7 -21 -17 -38
-21 -38 -4 0 -7 -3 -6 -7 7 -34 -190 -384 -275 -489 -8 -10 -36 -45 -62 -77
-25 -32 -54 -67 -63 -79 -32 -39 -217 -223 -271 -268 -196 -165 -427 -307
-655 -404 -50 -21 -95 -39 -100 -40 -6 -1 -15 -4 -21 -8 -10 -6 -167 -57 -195
-63 -8 -2 -35 -8 -60 -15 -74 -18 -223 -48 -276 -54 -133 -16 -182 -19 -339
-18 -93 0 -199 2 -235 6 -157 14 -335 48 -480 92 -47 15 -89 27 -95 28 -57 10
-337 138 -475 217 -53 30 -230 148 -240 159 -3 4 -14 13 -26 21 -71 48 -321
286 -390 370 -206 251 -356 514 -458 804 -25 72 -72 230 -80 275 -3 14 -7 36
-11 50 -3 14 -7 39 -9 55 -3 17 -9 55 -15 85 -5 30 -9 62 -9 70 0 8 -4 40 -8
70 -15 111 -8 430 11 565 20 140 76 390 94 420 3 6 7 17 8 26 3 20 64 181 93
245 69 153 205 394 222 394 4 0 8 5 8 10 0 12 80 123 92 128 4 2 8 8 8 13 0 5
8 17 18 27 9 10 40 45 68 78 273 313 646 569 1039 709 95 34 223 74 255 80 8
1 26 5 40 9 14 4 39 9 55 11 17 2 30 4 30 5 0 2 19 6 70 15 67 11 87 14 160
20 38 3 70 7 72 9 3 2 310 1 384 -2z"/>
</g>
</svg>
